<svg xmlns="http://www.w3.org/2000/svg" width="102" height="61" viewBox="0 0 102 61"><title>Cpro-LOGO-1</title><polygon points="4.171 4.05 60.48 4.05 60.48 0 0 0 0 59.191 20.855 59.191 20.855 55.01 4.171 55.01 4.171 4.05"/><path d="M380.589,346.9381a7.10251,7.10251,0,0,1,5.04945-1.85609,7.80887,7.80887,0,0,1,6.35465,3.0786v-8.72927a17.34467,17.34467,0,0,0-6.56361-1.43371,14.86685,14.86685,0,0,0-10.60249,4.38524,15.08086,15.08086,0,0,0-4.25127,10.37417,14.78215,14.78215,0,0,0,4.25127,10.24883,15.2335,15.2335,0,0,0,10.85257,4.217,17.29644,17.29644,0,0,0,6.31353-1.39078v-8.64514a8.23686,8.23686,0,0,1-6.35465,2.95154A7.61405,7.61405,0,0,1,380.589,346.9381Z" transform="translate(-357.42771 -322.92762)"/><path d="M417.96323,347.82407a8.73442,8.73442,0,0,0-2.60695-6.832,9.65552,9.65552,0,0,0-7.11172-2.53087H396.63149V366.591h7.27958v-9.31994h4.587a9.32289,9.32289,0,0,0,6.98155-2.44674A9.1538,9.1538,0,0,0,417.96323,347.82407Zm-8.54023,2.65622a4.74557,4.74557,0,0,1-3.07284.886h-2.43909V344.366h2.48362a4.259,4.259,0,0,1,3.11053,1.01132,3.40862,3.40862,0,0,1,.84271,2.53088A3.22085,3.22085,0,0,1,409.423,350.48029Z" transform="translate(-357.42771 -322.92762)"/><path d="M435.43765,353.89714v-6.36839c-.88382-.04293-1.17844-.08414-1.3463-.08414a7.32,7.32,0,0,0-3.4942.75892,6.06666,6.06666,0,0,0-2.64805,2.615v-3.0786h-6.73147V366.591h6.73147v-8.0545a5.6933,5.6933,0,0,1,1.51415-4.30282,4.39359,4.39359,0,0,1,3.06941-1.01133A5.91887,5.91887,0,0,1,435.43765,353.89714Z" transform="translate(-357.42771 -322.92762)"/><path d="M448.11268,367.22285a11.27182,11.27182,0,0,0,8.41349-3.1198,9.74459,9.74459,0,0,0,0-13.87516,11.86918,11.86918,0,0,0-8.41349-3.12152,11.71419,11.71419,0,0,0-8.37237,3.12152,9.31863,9.31863,0,0,0-2.905,6.91611,9.41883,9.41883,0,0,0,2.905,6.959A11.25444,11.25444,0,0,0,448.11268,367.22285Zm-2.9872-13.15744a4.3095,4.3095,0,0,1,7.31725,3.07859,4.17008,4.17008,0,0,1-1.30174,2.99447,4.20709,4.20709,0,0,1-6.01551,0,4.18438,4.18438,0,0,1,0-6.07306Z" transform="translate(-357.42771 -322.92762)"/><path d="M384.34661,377.12271a2.88646,2.88646,0,0,0-.88254,2.15788,2.75255,2.75255,0,0,0,.88254,2.10874,2.70817,2.70817,0,0,0,2.01261.7689,2.843,2.843,0,0,0,1.36112-.32251v-1.257a1.6647,1.6647,0,0,1-1.2869.60395,1.82434,1.82434,0,0,1-1.86417-1.88521,1.843,1.843,0,0,1,1.82287-1.927,1.769,1.769,0,0,1,1.3282.6201v-1.25636a2.75517,2.75517,0,0,0-1.35271-.33933A2.81118,2.81118,0,0,0,384.34661,377.12271Z" transform="translate(-357.42771 -322.92762)"/><path d="M391.02251,380.47971a.80553.80553,0,0,1-.21425.62818.80809.80809,0,0,1-1.02293,0,.80463.80463,0,0,1-.21459-.62818V378.4538H388.5646v2.19155a1.35431,1.35431,0,0,0,.43691,1.09947,2.27175,2.27175,0,0,0,2.59023,0,1.35476,1.35476,0,0,0,.43725-1.09947V378.4538h-1.00648Z" transform="translate(-357.42771 -322.92762)"/><path d="M394.44022,378.49554a1.20405,1.20405,0,0,0-.44564.49554v-.53728h-1.00613v3.58054h1.00613v-1.71958a1.2347,1.2347,0,0,1,.19814-.79448.821.821,0,0,1,.668-.28884.75545.75545,0,0,1,.47016.132l.132-.94261a1.24119,1.24119,0,0,0-.42885-.08281A1.088,1.088,0,0,0,394.44022,378.49554Z" transform="translate(-357.42771 -322.92762)"/><path d="M397.40289,379.75189l-.23912-.074c-.28041-.09091-.32172-.23161-.32172-.32252,0-.1737.14844-.2895.38754-.2895a.8354.8354,0,0,1,.58568.23969l.495-.58711a1.77732,1.77732,0,0,0-1.13811-.38041,1.4698,1.4698,0,0,0-.93225.25653,1.06509,1.06509,0,0,0-.37109.81063.96251.96251,0,0,0,.272.68608,1.93094,1.93094,0,0,0,.76736.43024l.23071.08213a.39955.39955,0,0,1,.31366.36425c0,.24777-.21459.38849-.495.38849a1.10585,1.10585,0,0,1-.79187-.4134l-.52792.612a1.80344,1.80344,0,0,0,1.38562.59519,1.49715,1.49715,0,0,0,1.07229-.38041,1.19146,1.19146,0,0,0,.39628-.90962,1.03972,1.03972,0,0,0-.18169-.59518A1.82674,1.82674,0,0,0,397.40289,379.75189Z" transform="translate(-357.42771 -322.92762)"/><path d="M401.06708,378.338a2.05487,2.05487,0,0,0-1.44371.50429,1.93275,1.93275,0,0,0,0,2.80358,2.31825,2.31825,0,0,0,2.8871,0,1.93278,1.93278,0,0,0,0-2.80358A2.054,2.054,0,0,0,401.06708,378.338Zm0,2.91938a1.013,1.013,0,1,1,1.00614-1.00927A.99613.99613,0,0,1,401.06708,381.25737Z" transform="translate(-357.42771 -322.92762)"/><path d="M405.25149,379.75189l-.23911-.074c-.28042-.09091-.32173-.23161-.32173-.32252,0-.1737.14844-.2895.38754-.2895a.8354.8354,0,0,1,.58568.23969l.495-.58711a1.77811,1.77811,0,0,0-1.13844-.38041,1.46941,1.46941,0,0,0-.93192.25653,1.06512,1.06512,0,0,0-.37109.81063.96251.96251,0,0,0,.272.68608,1.932,1.932,0,0,0,.767.43024l.231.08213a.39955.39955,0,0,1,.31366.36425c0,.24777-.21459.38849-.495.38849a1.10587,1.10587,0,0,1-.79187-.4134l-.52792.612a1.80344,1.80344,0,0,0,1.38562.59519,1.49853,1.49853,0,0,0,1.07263-.38041,1.19189,1.19189,0,0,0,.3956-.90962,1.03958,1.03958,0,0,0-.18135-.59518A1.82674,1.82674,0,0,0,405.25149,379.75189Z" transform="translate(-357.42771 -322.92762)"/><path d="M410.72344,376.51877h-1.60022v5.51557h1.0723v-2.04208h.69281a1.88479,1.88479,0,0,0,1.394-.48814,1.87862,1.87862,0,0,0-.10714-2.5632A1.9696,1.9696,0,0,0,410.72344,376.51877Zm.61054,2.37333a1.09533,1.09533,0,0,1-.70122.17372h-.43724v-1.62061h.37109a1.2852,1.2852,0,0,1,.759.17372.76.76,0,0,1,.30527.62817A.82429.82429,0,0,1,411.334,378.8921Z" transform="translate(-357.42771 -322.92762)"/><path d="M414.834,378.49554a1.20412,1.20412,0,0,0-.44563.49554v-.53728h-1.00614v3.58054h1.00614v-1.71958a1.23469,1.23469,0,0,1,.19813-.79448.821.821,0,0,1,.668-.28884.7554.7554,0,0,1,.47015.132l.132-.94261a1.23954,1.23954,0,0,0-.42885-.08281A1.088,1.088,0,0,0,414.834,378.49554Z" transform="translate(-357.42771 -322.92762)"/><path d="M418.1348,378.338a2.05486,2.05486,0,0,0-1.44372.50429,1.93273,1.93273,0,0,0,0,2.80358,2.31825,2.31825,0,0,0,2.8871,0,1.93278,1.93278,0,0,0,0-2.80358A2.054,2.054,0,0,0,418.1348,378.338Zm0,2.91938a1.013,1.013,0,1,1,1.00613-1.00927A.99613.99613,0,0,1,418.1348,381.25737Z" transform="translate(-357.42771 -322.92762)"/><path d="M423.12786,378.338a1.35818,1.35818,0,0,0-1.1633.579v-.46322h-1.00613v5.47382h1.00613v-2.35651a1.352,1.352,0,0,0,1.14651.579,1.7479,1.7479,0,0,0,1.21267-.46323,2.15052,2.15052,0,0,0,.02486-2.86887A1.70494,1.70494,0,0,0,423.12786,378.338Zm.404,2.66285a.95411.95411,0,0,1-.67635.25653.97666.97666,0,0,1-.6599-.24037,1.01741,1.01741,0,0,1-.33012-.777.95007.95007,0,0,1,.33851-.7689.90734.90734,0,0,1,.65151-.23969,1.05271,1.05271,0,0,1,.68475.25586,1.08121,1.08121,0,0,1,.30527.75273A1.05137,1.05137,0,0,1,423.53186,381.00084Z" transform="translate(-357.42771 -322.92762)"/><path d="M427.37,378.338a1.82792,1.82792,0,0,0-1.34466.50429,1.91081,1.91081,0,0,0-.54437,1.40582,1.80855,1.80855,0,0,0,.56083,1.39776,1.8689,1.8689,0,0,0,1.3695.50429,1.7651,1.7651,0,0,0,1.757-1.11631l-.92385-.1488a.9206.9206,0,0,1-.83319.4713.84941.84941,0,0,1-.71767-.33934,1.0569,1.0569,0,0,1-.17328-.60326h2.67251v-.08281a2.14494,2.14494,0,0,0-.42885-1.40583A1.70536,1.70536,0,0,0,427.37,378.338Zm-.81673,1.43074a.85661.85661,0,0,1,1.69122,0Z" transform="translate(-357.42771 -322.92762)"/><path d="M432.709,378.917a1.29255,1.29255,0,0,0-1.14651-.579,1.78879,1.78879,0,0,0-1.7735,1.902,1.815,1.815,0,0,0,1.82321,1.91012,1.27926,1.27926,0,0,0,1.0968-.579v.46323h1.00647V376.0064H432.709Zm-.89061,2.34035a1.01324,1.01324,0,1,1,.98969-1.01734A.97974.97974,0,0,1,431.81838,381.25737Z" transform="translate(-357.42771 -322.92762)"/><polygon points="80.2 53.782 79.474 53.318 78.501 54.559 78.963 54.89 80.2 53.782"/><path d="M436.38226,378.338a1.82785,1.82785,0,0,0-1.34464.50429,1.91077,1.91077,0,0,0-.54438,1.40582,1.80858,1.80858,0,0,0,.56083,1.39776,1.86888,1.86888,0,0,0,1.3695.50429,1.76513,1.76513,0,0,0,1.757-1.11631l-.92386-.1488a.92061.92061,0,0,1-.83319.4713.84937.84937,0,0,1-.71766-.33934,1.05691,1.05691,0,0,1-.17329-.60326h2.6725v-.08281a2.145,2.145,0,0,0-.42884-1.40583A1.70536,1.70536,0,0,0,436.38226,378.338Zm-.81673,1.43074a.85662.85662,0,0,1,1.69123,0Z" transform="translate(-357.42771 -322.92762)"/><path d="M441.44082,380.47971a.80554.80554,0,0,1-.21426.62818.80809.80809,0,0,1-1.02293,0,.80463.80463,0,0,1-.21459-.62818V378.4538h-1.00613v2.19155a1.35431,1.35431,0,0,0,.43691,1.09947,2.27173,2.27173,0,0,0,2.59022,0,1.35472,1.35472,0,0,0,.43725-1.09947V378.4538h-1.00647Z" transform="translate(-357.42771 -322.92762)"/><polygon points="86.985 54.303 85.979 54.303 85.979 55.526 85.583 55.526 85.583 56.386 85.979 56.386 85.979 59.107 86.985 59.107 86.985 56.386 87.678 56.386 87.678 55.526 86.985 55.526 86.985 54.303"/><rect x="88.20725" y="55.52618" width="1.00614" height="3.58055"/><path d="M446.138,376.337a.6036.6036,0,1,0,.60213.60394A.60653.60653,0,0,0,446.138,376.337Z" transform="translate(-357.42771 -322.92762)"/><path d="M448.03611,378.80121a1.91591,1.91591,0,0,0-.61859,1.45565,1.84014,1.84014,0,0,0,.56923,1.37216,2.05775,2.05775,0,0,0,2.30141.2976v-.98368a1.16586,1.16586,0,0,1-.79187.31443A.99624.99624,0,0,1,448.4569,380.24a.96068.96068,0,0,1,1.00649-1.00859,1.16112,1.16112,0,0,1,.82477.31375v-.99174a2.12573,2.12573,0,0,0-.96515-.21546A1.90114,1.90114,0,0,0,448.03611,378.80121Z" transform="translate(-357.42771 -322.92762)"/><path d="M452.91332,378.338a2.05481,2.05481,0,0,0-1.44371.50429,1.93275,1.93275,0,0,0,0,2.80358,2.31825,2.31825,0,0,0,2.8871,0,1.93278,1.93278,0,0,0,0-2.80358A2.054,2.054,0,0,0,452.91332,378.338Zm0,2.91938a1.013,1.013,0,1,1,1.00614-1.00927A.99612.99612,0,0,1,452.91332,381.25737Z" transform="translate(-357.42771 -322.92762)"/><path d="M457.09772,379.75189l-.2391-.074c-.28042-.09091-.32174-.23161-.32174-.32252,0-.1737.14846-.2895.38754-.2895a.83542.83542,0,0,1,.58569.23969l.495-.58711a1.77813,1.77813,0,0,0-1.13846-.38041,1.46937,1.46937,0,0,0-.9319.25653,1.0651,1.0651,0,0,0-.37111.81063.96248.96248,0,0,0,.272.68608,1.93185,1.93185,0,0,0,.767.43024l.231.08213a.39954.39954,0,0,1,.31368.36425c0,.24777-.21461.38849-.495.38849a1.10585,1.10585,0,0,1-.79187-.4134l-.52793.612a1.80346,1.80346,0,0,0,1.38563.59519,1.49853,1.49853,0,0,0,1.07263-.38041,1.19189,1.19189,0,0,0,.3956-.90962,1.03965,1.03965,0,0,0-.18134-.59518A1.8268,1.8268,0,0,0,457.09772,379.75189Z" transform="translate(-357.42771 -322.92762)"/></svg>